<?xml version="1.0" encoding="UTF-8"?>
<svg id="Layer_1" data-name="Layer 1" xmlns="http://www.w3.org/2000/svg" width="200" height="34" version="1.1" viewBox="0 0 200 34">
  <path d="M26.51,3.27H0v27.71h26.51V3.27Z" fill="#000" stroke-width="0"/>
  <path d="M55.07,3.27h-26.51v27.71h26.51V3.27Z" fill="#000" stroke-width="0"/>
  <path d="M83.63,3.27h-26.51v27.71h26.51V3.27Z" fill="#000" stroke-width="0"/>
  <path d="M112.19,3.27h-26.51v27.71h26.51V3.27Z" fill="#000" stroke-width="0"/>
  <path d="M140.75,3.27h-26.51v27.71h26.51V3.27Z" fill="#000" stroke-width="0"/>
  <path d="M142.79,3.28v27.69h26.51V3.28h-26.51ZM153.73,29.62l.24-.33c.75-.98,1.44-2,2.08-3.06.5,1,1.1,1.9,1.82,3.06l.21.33h-4.36ZM167.92,29.62h-3.48l-5.34-7.28,6.39-9h-6.39l-1.14,1.79c-.71,1.16-1.5,2.4-1.97,3.37-.58-1.16-1.22-2.29-1.94-3.37l-1.13-1.79h-6.52l6.39,9.11-5.41,7.18h-3.28V4.65h23.76l.05,24.98Z" fill="#000" stroke-width="0"/>
  <path d="M184.68,30.99h1.98v-3.29l6.68.75-.33-2.76,6.98-5.21-1.4-1.91,1.4-4.44-4.5.43-1.18-2.18-4.35,4.1,1.57-9.1-2.9,1.72-2.96-5.82v-.02s-2.97,5.82-2.97,5.82l-2.9-1.72,1.57,9.1-4.35-4.1-1.18,2.19-4.51-.43,1.41,4.44-1.41,1.92,6.99,5.2-.33,2.77,6.67-.76v3.32Z" fill="#eb1c2d" stroke-width="0"/>
  <path d="M13.95,26.85c-5.54,0-8.49-4.07-8.49-9.56,0-5.96,3.51-9.56,8.52-9.56,4.57,0,6.39,1.96,7.67,5.45l-4.66,1.86c-.66-1.73-1.31-2.84-3.01-2.84-2.14,0-3.09,2.13-3.09,5.09s.91,5.09,3.14,5.09c1.62,0,2.32-.87,3.33-2.63l4.37,2.31c-1.28,2.43-3.36,4.78-7.78,4.78Z" fill="#fff" stroke-width="0"/>
  <path d="M43.26,19.12h-3.09l.35-1.24c.66-2.35.96-3.38,1.2-4.62.24,1.24.53,2.24,1.19,4.62l.34,1.24ZM51.12,26.45l-6.77-18.51h-5.2l-6.78,18.51h5.53l1.02-3.28h5.59l1.01,3.28h5.6Z" fill="#fff" stroke-width="0"/>
  <path d="M72.96,14.09c0,1.33-.67,2.07-2.35,2.07h-3.04v-4.05h3.12c1.63,0,2.27.82,2.27,1.99ZM78.46,26.44l-3.73-7.1c2.05-.92,3.36-2.63,3.36-5.42,0-4.39-2.9-6.03-7.28-6.03h-8.33v18.55h5.08v-6.26h2.08l3.04,6.26h5.78Z" fill="#fff" stroke-width="0"/>
  <path d="M96.39,12.28v2.58h5.83v4.33h-5.83v7.24h-5.14V7.94h14.75v4.36l-9.61-.02Z" fill="#fff" stroke-width="0"/>
  <path d="M128.49,19.1h-3.09l.34-1.21c.67-2.35.96-3.38,1.2-4.63.24,1.25.53,2.25,1.19,4.63l.35,1.21ZM136.36,26.4l-6.78-18.46h-5.22l-6.76,18.46h5.54l1.01-3.27h5.6l1.01,3.27h5.6Z" fill="#fff" stroke-width="0"/>
  <path d="M156,26.23c-.64,1.06-1.34,2.08-2.09,3.06l-.24.33h4.39l-.21-.33c-.73-1.16-1.34-2.06-1.84-3.06Z" fill="#fff" stroke-width="0"/>
  <path d="M152.87,22.44l-6.43-9.11h6.56l1.14,1.79c.72,1.08,1.37,2.21,1.95,3.37.46-.97,1.26-2.22,1.98-3.37l1.14-1.79h6.43l-6.43,9,5.38,7.28h3.5V4.61h-23.93v25.01h3.3l5.4-7.18Z" fill="#fff" stroke-width="0"/>
</svg>