<?xml version="1.0" encoding="UTF-8"?>
<svg id="Layer_1" data-name="Layer 1" xmlns="http://www.w3.org/2000/svg" width="58" height="36.25" version="1.1" viewBox="0 0 58 36.25">
  <g id="Logomark_-_Primary_-_RGB" data-name="Logomark - Primary - RGB">
    <path d="M16.65,25c-2.91,0-4.09-2.95-4.09-6.67s1.21-6.66,4.02-6.66c2.22,0,3.04,1.42,3.91,3.68l6.09-2.4c-1.66-4.57-4.02-7.13-9.97-7.13-6.51,0-11.07,4.7-11.07,12.5,0,7.19,3.84,12.51,11.04,12.51,5.75,0,8.45-3.08,10.07-6.26l-5.68-3.03c-1.32,2.29-2.22,3.44-4.33,3.44Z" fill="#fff" stroke-width="0"/>
    <path d="M0-.03v36.27h33.16V-.03H0ZM16.58,30.84c-7.2,0-11.04-5.32-11.04-12.51,0-7.8,4.57-12.5,11.07-12.5,5.96,0,8.31,2.56,9.97,7.13l-6.09,2.4c-.87-2.26-1.7-3.68-3.91-3.68-2.81,0-4.02,2.81-4.02,6.66s1.18,6.67,4.09,6.67c2.11,0,3.01-1.15,4.33-3.44l5.68,3.03c-1.62,3.18-4.33,6.26-10.07,6.26Z" fill="#000" stroke-width="0"/>
    <polygon points="55.91 22.79 58 16.17 51.28 16.8 49.52 13.55 43.03 19.67 45.37 6.1 41.05 8.66 36.63 -.02 36.63 36.25 47.91 36.25 47.58 33.42 58 25.65 55.91 22.79" fill="#eb1c2d" stroke-width="0"/>
  </g>
</svg>