<?xml version="1.0" encoding="UTF-8"?><svg id="a" xmlns="http://www.w3.org/2000/svg" xmlns:xlink="http://www.w3.org/1999/xlink" viewBox="0 0 735.69 207.88"><defs><style>.at{fill:url(#k);}.au{fill:url(#as);}.av{fill:url(#am);}.aw{fill:url(#w);}.ax{fill:url(#ao);}.ay{fill:url(#ak);}.az{fill:url(#t);}.ba{fill:url(#ae);}.bb{fill:url(#aj);}.bc{fill:url(#d);}.bd{clip-path:url(#ac);}.be{fill:url(#l);}.bf{fill:url(#ar);}.bg{fill:url(#h);}.bh{fill:url(#o);}.bi{fill:url(#j);}.bj{fill:url(#an);}.bk{fill:url(#g);}.bl{fill:url(#z);}.bm{fill:url(#q);}.bn{fill:url(#ap);}.bo{fill:#f5a501;}.bp{fill:url(#m);}.bq{fill:url(#aa);}.br{fill:url(#ab);}.bs{fill:url(#aq);}.bt{fill:url(#e);}.bu{fill:url(#i);}.bv{fill:url(#ai);}.bw{fill:url(#f);}.bx{fill:url(#v);}.by{fill:url(#x);}.bz{fill:url(#p);}.ca{fill:url(#y);}.cb{fill:url(#al);}.cc{fill:url(#b);}.cd{fill:url(#r);}.ce{fill:url(#ag);}.cf{fill:url(#n);}.cg{fill:url(#u);}.ch{fill:url(#af);}.ci{fill:url(#ad);}.cj{fill:url(#ah);}.ck{clip-path:url(#c);}.cl{fill:url(#s);}</style><linearGradient id="b" x1="617.21" y1="189.53" x2="735.69" y2="189.53" gradientUnits="userSpaceOnUse"><stop offset=".54" stop-color="#ffb300"/><stop offset="1" stop-color="#f5a501"/><stop offset="1" stop-color="#7d0009"/></linearGradient><clipPath id="c"><path class="cc" d="M735.69,189.53c-9.87.53-19.75.78-29.62.98l-29.62.3-29.62-.3-14.81-.36-14.81-.63,14.81-.63,14.81-.36,29.62-.3,29.62.3c9.87.21,19.75.45,29.62.98Z"/></clipPath><linearGradient id="d" x1="617.21" y1="189.53" x2="681.42" y2="189.53" xlink:href="#b"/><linearGradient id="e" x1="681.42" y1="189.53" x2="685.29" y2="189.53" xlink:href="#b"/><linearGradient id="f" x1="685.29" y1="189.53" x2="689.17" y2="189.53" xlink:href="#b"/><linearGradient id="g" x1="689.17" y1="189.53" x2="693.05" y2="189.53" xlink:href="#b"/><linearGradient id="h" x1="693.05" y1="189.53" x2="696.92" y2="189.53" xlink:href="#b"/><linearGradient id="i" x1="696.92" y1="189.53" x2="700.8" y2="189.53" xlink:href="#b"/><linearGradient id="j" x1="700.8" y1="189.53" x2="704.68" y2="189.53" xlink:href="#b"/><linearGradient id="k" x1="704.68" y1="189.53" x2="708.55" y2="189.53" xlink:href="#b"/><linearGradient id="l" x1="708.55" y1="189.53" x2="712.43" y2="189.53" xlink:href="#b"/><linearGradient id="m" x1="712.43" y1="189.53" x2="716.31" y2="189.53" xlink:href="#b"/><linearGradient id="n" x1="716.31" y1="189.53" x2="720.19" y2="189.53" xlink:href="#b"/><linearGradient id="o" x1="720.19" y1="189.53" x2="724.06" y2="189.53" xlink:href="#b"/><linearGradient id="p" x1="724.06" y1="189.53" x2="727.94" y2="189.53" xlink:href="#b"/><linearGradient id="q" x1="727.94" y1="189.53" x2="731.82" y2="189.53" xlink:href="#b"/><linearGradient id="r" x1="731.82" y1="189.53" y2="189.53" xlink:href="#b"/><linearGradient id="s" x1="146.7" y1="189.95" x2="188.1" y2="189.95" xlink:href="#b"/><linearGradient id="t" x1="200.8" y1="190.34" x2="234.78" y2="190.34" xlink:href="#b"/><linearGradient id="u" x1="249.35" y1="190.07" x2="281.62" y2="190.07" xlink:href="#b"/><linearGradient id="v" x1="293.01" y1="190.07" x2="334.53" y2="190.07" xlink:href="#b"/><linearGradient id="w" x1="373.2" y1="190.07" x2="403.94" y2="190.07" xlink:href="#b"/><linearGradient id="x" x1="415.85" y1="189.95" x2="457.25" y2="189.95" xlink:href="#b"/><linearGradient id="y" x1="471.99" y1="190.07" x2="499.84" y2="190.07" xlink:href="#b"/><linearGradient id="z" x1="514.98" y1="190.07" x2="544.7" y2="190.07" xlink:href="#b"/><linearGradient id="aa" x1="558.25" y1="190.07" x2="588.99" y2="190.07" xlink:href="#b"/><linearGradient id="ab" x1="0" y1="190.82" x2="118.56" y2="190.82" xlink:href="#b"/><linearGradient id="ad" x1="0" y1="190.82" x2="118.56" y2="190.82" xlink:href="#b"/><clipPath id="ac"><path class="ci" d="M118.56,190.82c-9.88.53-19.76.78-29.64.98l-29.64.3-29.64-.3-14.82-.36L0,190.82l14.82-.63,14.82-.36,29.64-.3,29.64.3c9.88.21,19.76.45,29.64.98Z"/></clipPath><linearGradient id="ae" x1="0" y1="190.82" x2="64.25" y2="190.82" xlink:href="#b"/><linearGradient id="af" x1="64.25" y1="190.82" x2="68.13" y2="190.82" xlink:href="#b"/><linearGradient id="ag" x1="68.13" y1="190.82" x2="72.01" y2="190.82" xlink:href="#b"/><linearGradient id="ah" x1="72.01" y1="190.82" x2="75.89" y2="190.82" xlink:href="#b"/><linearGradient id="ai" x1="75.89" y1="190.82" x2="79.77" y2="190.82" xlink:href="#b"/><linearGradient id="aj" x1="79.77" y1="190.82" x2="83.65" y2="190.82" xlink:href="#b"/><linearGradient id="ak" x1="83.65" y1="190.82" x2="87.53" y2="190.82" xlink:href="#b"/><linearGradient id="al" x1="87.53" y1="190.82" x2="91.4" y2="190.82" xlink:href="#b"/><linearGradient id="am" x1="91.4" y1="190.82" x2="95.28" y2="190.82" xlink:href="#b"/><linearGradient id="an" x1="95.28" y1="190.82" x2="99.16" y2="190.82" xlink:href="#b"/><linearGradient id="ao" x1="99.16" y1="190.82" x2="103.04" y2="190.82" xlink:href="#b"/><linearGradient id="ap" x1="103.04" y1="190.82" x2="106.92" y2="190.82" xlink:href="#b"/><linearGradient id="aq" x1="106.92" y1="190.82" x2="110.8" y2="190.82" xlink:href="#b"/><linearGradient id="ar" x1="110.8" y1="190.82" x2="114.68" y2="190.82" xlink:href="#b"/><linearGradient id="as" x1="114.68" y1="190.82" x2="118.56" y2="190.82" xlink:href="#b"/></defs><path class="cc" d="M735.69,189.53c-9.87.53-19.75.78-29.62.98l-29.62.3-29.62-.3-14.81-.36-14.81-.63,14.81-.63,14.81-.36,29.62-.3,29.62.3c9.87.21,19.75.45,29.62.98Z"/><g class="ck"><rect class="bc" x="617.21" y="188.25" width="64.21" height="2.57"/><rect class="bt" x="681.42" y="188.25" width="3.88" height="2.57"/><rect class="bw" x="685.29" y="188.25" width="3.88" height="2.57"/><rect class="bk" x="689.17" y="188.25" width="3.88" height="2.57"/><rect class="bg" x="693.05" y="188.25" width="3.88" height="2.57"/><rect class="bu" x="696.92" y="188.25" width="3.88" height="2.57"/><rect class="bi" x="700.8" y="188.25" width="3.88" height="2.57"/><rect class="at" x="704.68" y="188.25" width="3.88" height="2.57"/><rect class="be" x="708.55" y="188.25" width="3.88" height="2.57"/><rect class="bp" x="712.43" y="188.25" width="3.88" height="2.57"/><rect class="cf" x="716.31" y="188.25" width="3.88" height="2.57"/><rect class="bh" x="720.19" y="188.25" width="3.88" height="2.57"/><rect class="bz" x="724.06" y="188.25" width="3.88" height="2.57"/><rect class="bm" x="727.94" y="188.25" width="3.88" height="2.57"/><rect class="cd" x="731.82" y="188.25" width="3.88" height="2.57"/></g><path class="cl" d="M164.17,172.6h6.47l17.47,34.69h-7.37l-4.03-8.32h-18.77l-4.08,8.32h-7.15l17.47-34.69ZM174.15,193.61l-6.86-13.78-6.81,13.78h13.67Z"/><path class="az" d="M200.8,192.68v-19.83h6.98v19.58c0,6.4,3.8,9.79,10.04,9.79s9.98-3.2,9.98-9.54v-19.83h6.98v19.53c0,10.28-6.69,15.45-17.07,15.45s-16.9-5.17-16.9-15.15Z"/><path class="cg" d="M261.99,178.46h-12.65v-5.61h32.27v5.61h-12.65v28.83h-6.98v-28.83Z"/><path class="bx" d="M293.01,190.17v-.1c0-9.69,8.62-17.81,20.82-17.81s20.7,8.02,20.7,17.71v.1c0,9.69-8.62,17.81-20.82,17.81s-20.7-8.02-20.7-17.71ZM327.22,190.17v-.1c0-6.69-5.62-12.2-13.5-12.2s-13.39,5.41-13.39,12.1v.1c0,6.69,5.62,12.2,13.5,12.2s13.39-5.41,13.39-12.1Z"/><path class="aw" d="M373.2,202.27l4.2-4.33c3.8,2.85,7.66,4.48,12.54,4.48,4.31,0,7.03-1.77,7.03-4.33v-.1c0-2.46-1.59-3.79-8.96-5.26-8.45-1.77-13.22-3.94-13.22-10.28v-.1c0-5.9,5.67-9.99,13.56-9.99,5.78,0,10.38,1.52,14.41,4.33l-3.74,4.58c-3.57-2.31-7.15-3.54-10.78-3.54-4.08,0-6.47,1.82-6.47,4.08v.1c0,2.66,1.81,3.84,9.47,5.41,8.4,1.77,12.7,4.38,12.7,10.09v.1c0,6.45-5.84,10.28-14.18,10.28-6.07,0-11.8-1.82-16.56-5.51Z"/><path class="by" d="M433.32,172.6h6.47l17.47,34.69h-7.37l-4.03-8.32h-18.77l-4.08,8.32h-7.15l17.47-34.69ZM443.3,193.61l-6.86-13.78-6.81,13.78h13.67Z"/><path class="ca" d="M471.99,172.85h6.98v28.93h20.87v5.51h-27.85v-34.44Z"/><path class="bl" d="M514.98,172.85h29.44v5.41h-22.46v8.95h19.91v5.46h-19.91v9.2h22.74v5.41h-29.72v-34.44Z"/><path class="bq" d="M558.25,202.27l4.2-4.33c3.8,2.85,7.66,4.48,12.54,4.48,4.31,0,7.03-1.77,7.03-4.33v-.1c0-2.46-1.59-3.79-8.96-5.26-8.45-1.77-13.22-3.94-13.22-10.28v-.1c0-5.9,5.67-9.99,13.56-9.99,5.78,0,10.38,1.52,14.41,4.33l-3.74,4.58c-3.57-2.31-7.15-3.54-10.78-3.54-4.08,0-6.47,1.82-6.47,4.08v.1c0,2.66,1.81,3.84,9.47,5.41,8.4,1.77,12.7,4.38,12.7,10.09v.1c0,6.45-5.84,10.28-14.18,10.28-6.07,0-11.8-1.82-16.56-5.51Z"/><path class="bo" d="M0,8.01h64.76c15.94,0,28.49,4.2,36.46,11.83,6.38,6.11,9.56,13.55,9.56,22.72v.38c0,15.08-8.37,23.48-18.33,28.82,16.14,5.92,26.1,14.89,26.1,32.83v.38c0,24.43-20.72,36.65-52.21,36.65H0V8.01ZM80.3,47.52c0-8.78-7.17-13.74-20.13-13.74h-30.29v28.25h28.3c13.55,0,22.12-4.2,22.12-14.12v-.38ZM65.36,86.46H29.89v29.4h36.46c13.55,0,21.72-4.58,21.72-14.51v-.38c0-8.97-6.97-14.51-22.72-14.51Z"/><path class="bo" d="M143.87,8.01h105.21v26.15h-74.72v27.11h65.76v26.15h-65.76v28.06h75.72v26.15h-106.21V8.01Z"/><path class="bo" d="M277.38,8.01h63.76c17.73,0,31.49,4.77,40.65,13.55,7.77,7.44,11.95,17.94,11.95,30.54v.38c0,21.57-12.15,35.12-29.89,41.42l34.07,47.72h-35.87l-29.89-42.76h-24.11v42.76h-30.69V8.01ZM339.15,72.9c14.94,0,23.51-7.63,23.51-18.9v-.38c0-12.6-9.16-19.09-24.11-19.09h-30.49v38.37h31.08Z"/><path class="bo" d="M421.45,8.01h30.68v106.89h69.54v26.72h-100.23V8.01Z"/><path class="bo" d="M546.19,8.01h30.68v133.62h-30.68V8.01Z"/><path class="bo" d="M611.75,8.01h28.3l65.36,82.27V8.01h30.29v133.62h-26.1l-67.55-84.94v84.94h-30.29V8.01Z"/><path class="br" d="M118.56,190.82c-9.88.53-19.76.78-29.64.98l-29.64.3-29.64-.3-14.82-.36L0,190.82l14.82-.63,14.82-.36,29.64-.3,29.64.3c9.88.21,19.76.45,29.64.98Z"/><g class="bd"><rect class="ba" x="0" y="189.53" width="64.25" height="2.57"/><rect class="ch" x="64.25" y="189.53" width="3.88" height="2.57"/><rect class="ce" x="68.13" y="189.53" width="3.88" height="2.57"/><rect class="cj" x="72.01" y="189.53" width="3.88" height="2.57"/><rect class="bv" x="75.89" y="189.53" width="3.88" height="2.57"/><rect class="bb" x="79.77" y="189.53" width="3.88" height="2.57"/><rect class="ay" x="83.65" y="189.53" width="3.88" height="2.57"/><rect class="cb" x="87.53" y="189.53" width="3.88" height="2.57"/><rect class="av" x="91.4" y="189.53" width="3.88" height="2.57"/><rect class="bj" x="95.28" y="189.53" width="3.88" height="2.57"/><rect class="ax" x="99.16" y="189.53" width="3.88" height="2.57"/><rect class="bn" x="103.04" y="189.53" width="3.88" height="2.57"/><rect class="bs" x="106.92" y="189.53" width="3.88" height="2.57"/><rect class="bf" x="110.8" y="189.53" width="3.88" height="2.57"/><rect class="au" x="114.68" y="189.53" width="3.88" height="2.57"/></g></svg>